<svg xmlns="http://www.w3.org/2000/svg" viewBox="0 0 445 230" width="445" height="230" role="img" aria-label="Культура хоккея">
<title>Культура хоккея</title>
<g>
<path d="M18,10 L18,110" stroke="#2A2A24" stroke-width="13" fill="none" stroke-linejoin="miter" stroke-linecap="butt"/>
<path d="M18,62 L54,10" stroke="#2A2A24" stroke-width="13" fill="none" stroke-linejoin="miter" stroke-linecap="butt"/>
<path d="M18,62 L54,110" stroke="#2A2A24" stroke-width="13" fill="none" stroke-linejoin="miter" stroke-linecap="butt"/>
<path d="M71,10 L89,64" stroke="#2A2A24" stroke-width="13" fill="none" stroke-linejoin="miter" stroke-linecap="butt"/>
<path d="M107,10 L89,64" stroke="#2A2A24" stroke-width="13" fill="none" stroke-linejoin="miter" stroke-linecap="butt"/>
<path d="M89,64 L89,110" stroke="#2A2A24" stroke-width="13" fill="none" stroke-linejoin="miter" stroke-linecap="butt"/>
<path d="M126,110 L140,10 L160,10 L160,110" stroke="#2A2A24" stroke-width="13" fill="none" stroke-linejoin="miter" stroke-linecap="butt"/>
<path d="M183,10 L183,110" stroke="#2A2A24" stroke-width="13" fill="none" stroke-linejoin="miter" stroke-linecap="butt"/>
<path d="M183,62 L209,72 L209,100 L183,110" stroke="#2A2A24" stroke-width="13" fill="none" stroke-linejoin="miter" stroke-linecap="butt"/>
<path d="M228,10 L268,10" stroke="#2A2A24" stroke-width="13" fill="none" stroke-linejoin="miter" stroke-linecap="butt"/>
<path d="M248,10 L248,110" stroke="#2A2A24" stroke-width="13" fill="none" stroke-linejoin="miter" stroke-linecap="butt"/>
<path d="M285,10 L303,64" stroke="#2A2A24" stroke-width="13" fill="none" stroke-linejoin="miter" stroke-linecap="butt"/>
<path d="M321,10 L303,64" stroke="#2A2A24" stroke-width="13" fill="none" stroke-linejoin="miter" stroke-linecap="butt"/>
<path d="M303,64 L303,110" stroke="#2A2A24" stroke-width="13" fill="none" stroke-linejoin="miter" stroke-linecap="butt"/>
<path d="M342,10 L342,110" stroke="#2A2A24" stroke-width="13" fill="none" stroke-linejoin="miter" stroke-linecap="butt"/>
<path d="M342,10 L368,10 L374,36 L342,62" stroke="#2A2A24" stroke-width="13" fill="none" stroke-linejoin="miter" stroke-linecap="butt"/>
<path d="M393,110 L411,10 L429,110" stroke="#2A2A24" stroke-width="13" fill="none" stroke-linejoin="miter" stroke-linecap="butt"/>
<path d="M400,76 L422,76" stroke="#2A2A24" stroke-width="13" fill="none" stroke-linejoin="miter" stroke-linecap="butt"/>
<path d="M69.0,120 L103.0,220" stroke="#2A2A24" stroke-width="13" fill="none" stroke-linejoin="miter" stroke-linecap="butt"/>
<path d="M103.0,120 L69.0,220" stroke="#2A2A24" stroke-width="13" fill="none" stroke-linejoin="miter" stroke-linecap="butt"/>
<path d="M142.0,122 L162.0,148 L162.0,192 L142.0,218 L122.0,192 L122.0,148 L142.0,122" stroke="#2A2A24" stroke-width="13" fill="none" stroke-linejoin="miter" stroke-linecap="butt"/>
<path d="M183.0,120 L183.0,220" stroke="#2A2A24" stroke-width="13" fill="none" stroke-linejoin="miter" stroke-linecap="butt"/>
<path d="M183.0,172 L219.0,120" stroke="#2A2A24" stroke-width="13" fill="none" stroke-linejoin="miter" stroke-linecap="butt"/>
<path d="M183.0,172 L219.0,220" stroke="#2A2A24" stroke-width="13" fill="none" stroke-linejoin="miter" stroke-linecap="butt"/>
<path d="M238.0,120 L238.0,220" stroke="#2A2A24" stroke-width="13" fill="none" stroke-linejoin="miter" stroke-linecap="butt"/>
<path d="M238.0,172 L274.0,120" stroke="#2A2A24" stroke-width="13" fill="none" stroke-linejoin="miter" stroke-linecap="butt"/>
<path d="M238.0,172 L274.0,220" stroke="#2A2A24" stroke-width="13" fill="none" stroke-linejoin="miter" stroke-linecap="butt"/>
<path d="M293.0,120 L293.0,220" stroke="#2A2A24" stroke-width="13" fill="none" stroke-linejoin="miter" stroke-linecap="butt"/>
<path d="M293.0,120 L321.0,120" stroke="#2A2A24" stroke-width="13" fill="none" stroke-linejoin="miter" stroke-linecap="butt"/>
<path d="M293.0,170 L317.0,170" stroke="#2A2A24" stroke-width="13" fill="none" stroke-linejoin="miter" stroke-linecap="butt"/>
<path d="M293.0,220 L321.0,220" stroke="#2A2A24" stroke-width="13" fill="none" stroke-linejoin="miter" stroke-linecap="butt"/>
<path d="M374.0,120 L374.0,220" stroke="#2A2A24" stroke-width="13" fill="none" stroke-linejoin="miter" stroke-linecap="butt"/>
<path d="M374.0,120 L350.0,120 L344.0,146 L374.0,172" stroke="#2A2A24" stroke-width="13" fill="none" stroke-linejoin="miter" stroke-linecap="butt"/>
<path d="M356.0,172 L342.0,220" stroke="#2A2A24" stroke-width="13" fill="none" stroke-linejoin="miter" stroke-linecap="butt"/>
</g>
</svg>
