<svg xmlns="http://www.w3.org/2000/svg" viewBox="0 0 794 120" width="794" height="120" role="img" aria-label="Культура хоккея">
<title>Культура хоккея</title>
<g>
<path d="M18,10 L18,110" stroke="#2A2A24" stroke-width="13" fill="none" stroke-linejoin="miter" stroke-linecap="butt"/>
<path d="M18,62 L54,10" stroke="#2A2A24" stroke-width="13" fill="none" stroke-linejoin="miter" stroke-linecap="butt"/>
<path d="M18,62 L54,110" stroke="#2A2A24" stroke-width="13" fill="none" stroke-linejoin="miter" stroke-linecap="butt"/>
<path d="M71,10 L89,64" stroke="#2A2A24" stroke-width="13" fill="none" stroke-linejoin="miter" stroke-linecap="butt"/>
<path d="M107,10 L89,64" stroke="#2A2A24" stroke-width="13" fill="none" stroke-linejoin="miter" stroke-linecap="butt"/>
<path d="M89,64 L89,110" stroke="#2A2A24" stroke-width="13" fill="none" stroke-linejoin="miter" stroke-linecap="butt"/>
<path d="M126,110 L140,10 L160,10 L160,110" stroke="#2A2A24" stroke-width="13" fill="none" stroke-linejoin="miter" stroke-linecap="butt"/>
<path d="M183,10 L183,110" stroke="#2A2A24" stroke-width="13" fill="none" stroke-linejoin="miter" stroke-linecap="butt"/>
<path d="M183,62 L209,72 L209,100 L183,110" stroke="#2A2A24" stroke-width="13" fill="none" stroke-linejoin="miter" stroke-linecap="butt"/>
<path d="M228,10 L268,10" stroke="#2A2A24" stroke-width="13" fill="none" stroke-linejoin="miter" stroke-linecap="butt"/>
<path d="M248,10 L248,110" stroke="#2A2A24" stroke-width="13" fill="none" stroke-linejoin="miter" stroke-linecap="butt"/>
<path d="M285,10 L303,64" stroke="#2A2A24" stroke-width="13" fill="none" stroke-linejoin="miter" stroke-linecap="butt"/>
<path d="M321,10 L303,64" stroke="#2A2A24" stroke-width="13" fill="none" stroke-linejoin="miter" stroke-linecap="butt"/>
<path d="M303,64 L303,110" stroke="#2A2A24" stroke-width="13" fill="none" stroke-linejoin="miter" stroke-linecap="butt"/>
<path d="M342,10 L342,110" stroke="#2A2A24" stroke-width="13" fill="none" stroke-linejoin="miter" stroke-linecap="butt"/>
<path d="M342,10 L368,10 L374,36 L342,62" stroke="#2A2A24" stroke-width="13" fill="none" stroke-linejoin="miter" stroke-linecap="butt"/>
<path d="M393,110 L411,10 L429,110" stroke="#2A2A24" stroke-width="13" fill="none" stroke-linejoin="miter" stroke-linecap="butt"/>
<path d="M400,76 L422,76" stroke="#2A2A24" stroke-width="13" fill="none" stroke-linejoin="miter" stroke-linecap="butt"/>
<path d="M471,10 L505,110" stroke="#4A6E92" stroke-width="13" fill="none" stroke-linejoin="miter" stroke-linecap="butt"/>
<path d="M505,10 L471,110" stroke="#4A6E92" stroke-width="13" fill="none" stroke-linejoin="miter" stroke-linecap="butt"/>
<path d="M544,12 L564,38 L564,82 L544,108 L524,82 L524,38 L544,12" stroke="#4A6E92" stroke-width="13" fill="none" stroke-linejoin="miter" stroke-linecap="butt"/>
<path d="M585,10 L585,110" stroke="#4A6E92" stroke-width="13" fill="none" stroke-linejoin="miter" stroke-linecap="butt"/>
<path d="M585,62 L621,10" stroke="#4A6E92" stroke-width="13" fill="none" stroke-linejoin="miter" stroke-linecap="butt"/>
<path d="M585,62 L621,110" stroke="#4A6E92" stroke-width="13" fill="none" stroke-linejoin="miter" stroke-linecap="butt"/>
<path d="M640,10 L640,110" stroke="#4A6E92" stroke-width="13" fill="none" stroke-linejoin="miter" stroke-linecap="butt"/>
<path d="M640,62 L676,10" stroke="#4A6E92" stroke-width="13" fill="none" stroke-linejoin="miter" stroke-linecap="butt"/>
<path d="M640,62 L676,110" stroke="#4A6E92" stroke-width="13" fill="none" stroke-linejoin="miter" stroke-linecap="butt"/>
<path d="M695,10 L695,110" stroke="#4A6E92" stroke-width="13" fill="none" stroke-linejoin="miter" stroke-linecap="butt"/>
<path d="M695,10 L723,10" stroke="#4A6E92" stroke-width="13" fill="none" stroke-linejoin="miter" stroke-linecap="butt"/>
<path d="M695,60 L719,60" stroke="#4A6E92" stroke-width="13" fill="none" stroke-linejoin="miter" stroke-linecap="butt"/>
<path d="M695,110 L723,110" stroke="#4A6E92" stroke-width="13" fill="none" stroke-linejoin="miter" stroke-linecap="butt"/>
<path d="M776,10 L776,110" stroke="#4A6E92" stroke-width="13" fill="none" stroke-linejoin="miter" stroke-linecap="butt"/>
<path d="M776,10 L752,10 L746,36 L776,62" stroke="#4A6E92" stroke-width="13" fill="none" stroke-linejoin="miter" stroke-linecap="butt"/>
<path d="M758,62 L744,110" stroke="#4A6E92" stroke-width="13" fill="none" stroke-linejoin="miter" stroke-linecap="butt"/>
</g>
</svg>
